<?xml version="1.0" encoding="UTF-8"?>
<!DOCTYPE svg PUBLIC "-//W3C//DTD SVG 1.1//EN" "http://www.w3.org/Graphics/SVG/1.1/DTD/svg11.dtd">
<!-- Creator: CorelDRAW 2020 (64-Bit) -->
<svg xmlns="http://www.w3.org/2000/svg" xml:space="preserve" width="5.1105mm" height="5.1126mm" version="1.1" style="shape-rendering:geometricPrecision; text-rendering:geometricPrecision; image-rendering:optimizeQuality; fill-rule:evenodd; clip-rule:evenodd"
viewBox="0 0 35.61 35.62"
 xmlns:xlink="http://www.w3.org/1999/xlink"
 xmlns:xodm="http://www.corel.com/coreldraw/odm/2003">
 <defs>
  <style type="text/css">
   <![CDATA[
    .fil0 {fill:white}
   ]]>
  </style>
 </defs>
 <g id="Capa_x0020_1">
  <metadata id="CorelCorpID_0Corel-Layer"/>
  <path class="fil0" d="M16.38 0.07c-9.99,0.89 -17.11,9.45 -16.32,19.13 0.76,9.32 8.87,17.21 19.18,16.35 9.35,-0.78 17.15,-8.89 16.3,-19.26 -0.76,-9.22 -8.96,-17.14 -19.16,-16.23zm9.13 8.64l-0.05 0.66 -0.21 -0.25 -0.21 -0.11 -0.23 -0.1c-0.13,-0.11 -0.06,-0.06 -0.23,-0.17 -1.16,-1.26 -4.47,-2.28 -6.75,-2.29 -7.46,-0.02 -13.32,7.27 -10.85,14.89 3.83,11.79 21.15,9.67 22.2,-2.58 0.22,-2.58 -1.38,-2.35 -1.96,-1.98 -0.74,0.48 -0.6,2.58 -0.92,3.64 -2.9,9.36 -16.42,7.64 -17.28,-1.77 -0.6,-6.57 5.9,-11.55 12.26,-8.99 0.79,0.32 2.16,1.07 2.63,1.83 -1.01,0.01 -1.76,-0.11 -2.13,0.67 -1.37,2.89 5.32,1.78 5.36,1.76 1.23,-0.51 0.83,-3.01 0.82,-4.42 -0.02,-2.31 -2.13,-2.26 -2.45,-0.8zm-8.93 9.29c0.08,0.6 2.68,3.75 4.01,3.61 1.3,-0.14 1.25,-1.57 0.54,-2.35 -0.35,-0.38 -1.71,-1.58 -1.88,-1.88 -0.81,-1.41 1.06,-6.32 -1.69,-5.84 -1.23,0.21 -1.01,1.45 -1,2.7 0,1.02 -0.11,2.83 0.02,3.75z"/>
 </g>
</svg>
