<?xml version="1.0" standalone="no"?>
<!DOCTYPE svg PUBLIC "-//W3C//DTD SVG 20010904//EN"
 "http://www.w3.org/TR/2001/REC-SVG-20010904/DTD/svg10.dtd">
<svg version="1.0" xmlns="http://www.w3.org/2000/svg"
 width="32.000000pt" height="32.000000pt" viewBox="0 0 32.000000 32.000000"
 preserveAspectRatio="xMidYMid meet">

<g transform="translate(0.000000,32.000000) scale(0.100000,-0.100000)"
fill="#000000" stroke="none">
<path d="M104 304 c-39 -14 -42 -18 -52 -67 -11 -53 -4 -75 18 -62 8 5 10 22
6 51 -8 61 10 55 23 -8 7 -28 16 -57 21 -63 7 -8 -3 -19 -33 -35 -52 -29 -56
-35 -53 -79 l2 -36 124 0 c124 0 125 0 128 24 7 43 -7 66 -53 90 -32 17 -42
27 -35 36 5 6 14 35 21 63 7 33 16 52 25 52 30 0 12 19 -33 34 -55 19 -56 19
-109 0z m94 -85 c11 -17 11 -25 -3 -45 -8 -13 -24 -24 -35 -24 -11 0 -27 11
-35 24 -14 20 -14 28 -3 45 7 12 23 21 38 21 15 0 31 -9 38 -21z m-128 -20 c0
-11 -4 -18 -10 -14 -5 3 -7 12 -3 20 7 21 13 19 13 -6z m110 -69 c0 -5 -9 -10
-20 -10 -11 0 -20 5 -20 10 0 6 9 10 20 10 11 0 20 -4 20 -10z m-10 -30 c0 -5
-4 -10 -10 -10 -5 0 -10 5 -10 10 0 6 5 10 10 10 6 0 10 -4 10 -10z"/>
</g>
</svg>
