<?xml version="1.0" encoding="UTF-8"?>
<!DOCTYPE svg PUBLIC "-//W3C//DTD SVG 1.1//EN" "http://www.w3.org/Graphics/SVG/1.1/DTD/svg11.dtd">
<!-- Creator: CorelDRAW 2020 (64-Bit) -->
<svg xmlns="http://www.w3.org/2000/svg" xml:space="preserve" width="5.1105mm" height="5.1126mm" version="1.1" style="shape-rendering:geometricPrecision; text-rendering:geometricPrecision; image-rendering:optimizeQuality; fill-rule:evenodd; clip-rule:evenodd"
viewBox="0 0 35.61 35.62"
 xmlns:xlink="http://www.w3.org/1999/xlink"
 xmlns:xodm="http://www.corel.com/coreldraw/odm/2003">
 <defs>
  <style type="text/css">
   <![CDATA[
    .fil0 {fill:white}
   ]]>
  </style>
 </defs>
 <g id="Capa_x0020_1">
  <metadata id="CorelCorpID_0Corel-Layer"/>
  <path class="fil0" d="M16.38 0.07c-9.99,0.89 -17.11,9.45 -16.32,19.13 0.76,9.32 8.87,17.21 19.18,16.35 9.35,-0.78 17.15,-8.89 16.3,-19.26 -0.76,-9.22 -8.96,-17.14 -19.16,-16.23zm-1.93 7.78l3.03 0.02c-0,-0.71 0.01,-1.46 0.98,-1.42 0.94,0.04 0.8,0.74 0.88,1.38l3.04 0c0.08,-0.64 -0.06,-1.34 0.88,-1.38 1.01,-0.04 0.9,0.7 0.99,1.37 0.94,-0.03 3.52,-0.19 3.96,0.33 0.27,0.33 0.21,1.03 0.21,1.44 -0.01,2.82 0.02,5.65 0.03,8.48 0.01,1.9 0.01,3.81 0.01,5.71 -0,0.96 0.05,2.15 -0.05,3.1 -0.12,1.25 -1.58,0.91 -2.45,0.91l-14.39 0c-0.61,0 -2.48,0.15 -2.91,-0.23 -0.51,-0.44 -0.23,-1.8 -0.31,-2.56 -0.97,0 -1.94,0.01 -2.92,0 -0.63,-0.01 -1.17,-0.08 -1.23,-0.83 -0.01,-0.12 0,-0.24 0.04,-0.36 0.13,-0.44 0.81,-1.01 1.12,-1.37 0.84,-0.96 1.42,-2.12 1.87,-3.31 1.32,-3.47 1.13,-6.31 1.13,-9.91 -0,-0.65 -0.04,-1.17 0.77,-1.34 0.72,0.01 2.74,0.11 3.46,-0.02l0.04 -0.22c0.01,-0.15 0,-0.29 0.02,-0.49 0.27,-0.94 1.45,-0.94 1.73,0.05 0.01,0.15 0,0.29 0.01,0.42l0.05 0.24zm-4.21 1.77l0.08 2.38 16.24 0 -0.03 -2.32 -2.27 0c-0.09,0.67 0.02,1.42 -0.99,1.38 -0.94,-0.04 -0.8,-0.74 -0.88,-1.38l-3.04 0c-0.08,0.64 0.06,1.34 -0.88,1.38 -0.97,0.04 -0.99,-0.71 -0.98,-1.42 -0.02,-0 -0.04,-0 -0.07,-0.01 -0.13,-0.01 -0.3,0 -0.44,0l-2.54 0.05c-0.04,0.2 -0.02,0.45 -0.04,0.69 -0.27,0.94 -1.45,0.94 -1.73,-0.05 -0.01,-0.15 0,-0.29 -0.01,-0.42l-0.04 -0.22 -1.96 -0.04c-0.1,-0 -0.31,-0.02 -0.41,-0.01zm16.36 4.19c-2.74,-0.14 -5.5,-0 -8.24,-0l-7.43 0c-0.14,0 -0.61,-0.06 -0.68,-0.07l-0.12 0.85c0.07,1.35 -0.58,3.78 -1.08,5.05 -0.28,0.71 -0.58,1.39 -0.96,2.06 -0.22,0.39 -0.68,0.99 -0.94,1.44 4.69,0 9.38,0 14.07,0 1.5,0 1.54,0.33 2.45,-0.86 1.45,-1.89 2.88,-5.42 2.81,-7.82l-0 -0.05 0.02 -0.05c0.1,-0.22 0.12,-0.36 0.09,-0.55zm-16.36 11.18l-0 0.93 16.33 0 -0.01 -4.89c-0.81,1.43 -1.94,3.87 -3.36,3.96 -0.87,0.05 -1.75,-0 -2.62,-0 -3.45,0 -6.9,0 -10.34,0z"/>
 </g>
</svg>
