<?xml version="1.0" encoding="UTF-8"?>
<svg id="Capa_2" data-name="Capa 2" xmlns="http://www.w3.org/2000/svg" xmlns:xlink="http://www.w3.org/1999/xlink" viewBox="0 0 1512.87 270.95">
  <defs>
    <style>
      .cls-1 {
        fill: url(#Degradado_sin_nombre_3);
      }
    </style>
    <linearGradient id="Degradado_sin_nombre_3" data-name="Degradado sin nombre 3" x1="0" y1="135.48" x2="1512.87" y2="135.48" gradientUnits="userSpaceOnUse">
      <stop offset="0" stop-color="#006eb0"/>
      <stop offset="1" stop-color="#002e79"/>
    </linearGradient>
  </defs>
  <g id="Layer_1" data-name="Layer 1">
    <g>
      <g>
        <rect x="1106.27" y="9.86" width="3.59" height="248.89"/>
        <g>
          <path d="m107.94,172.58h46.84c0,1.12.06,2.77.17,4.95.11,2.18.17,3.89.17,5.12,0,29.88-6.3,52.07-18.89,66.56-12.59,14.49-31.87,21.74-57.83,21.74-12.31,0-22.89-1.59-31.73-4.78-8.84-3.19-16.45-8.14-22.83-14.86-8.73-8.95-14.89-21.26-18.47-36.93-3.58-15.67-5.37-42.98-5.37-81.92,0-26.63,1.06-47.82,3.19-63.54,2.12-15.72,5.43-27.45,9.9-35.17,6.94-11.86,15.55-20.45,25.85-25.77C49.24,2.66,62.39,0,78.4,0c26.19,0,45.24,6.83,57.16,20.48,11.92,13.66,17.93,35.59,18.05,65.81h-46.67v-6.21c0-13.99-2.27-24.43-6.8-31.31-4.53-6.88-11.44-10.32-20.73-10.32-11.53,0-19.39,4.76-23.59,14.27-4.2,9.51-6.3,35.82-6.3,78.9,0,46.56,2.04,74.87,6.13,84.95,4.08,10.07,11.89,15.11,23.42,15.11,10.74,0,18.24-3.95,22.5-11.84,4.25-7.89,6.38-22.47,6.38-43.73v-3.53Z"/>
          <path d="m189.78,264.74V6.21h48.18v258.53h-48.18Z"/>
          <path d="m278.16,264.74V6.21h72.52l35.42,167.37L421.53,6.21h72.52v258.53h-46l1.01-229.32-48.18,229.32h-29.55l-48.18-229.32,1.18,229.32h-46.17Z"/>
          <path d="m515.28,264.74L573.53,6.21h64.63l58.76,258.53h-51.87l-12.76-64.97h-55.4l-12.42,64.97h-49.19Zm69.16-103.75h40.96l-20.65-108.45-20.31,108.45Z"/>
          <path d="m718.49,264.74V6.21h77.39c15.78,0,28.34,1.34,37.69,4.03,9.34,2.69,17.04,7.05,23.08,13.09,9.07,8.84,15.47,20.01,19.22,33.49,3.75,13.49,5.62,34.44,5.62,62.87,0,36.71-1.29,62.65-3.86,77.81-2.58,15.17-6.94,28.06-13.09,38.7-5.93,10.63-14.19,18.05-24.76,22.24-10.58,4.2-28.9,6.3-54.98,6.3h-66.31Zm47.17-38.11h21.32c10.85,0,18.47-.78,22.83-2.35,4.36-1.57,7.83-4.25,10.41-8.06,4.48-6.72,7.67-15.92,9.57-27.62,1.9-11.69,2.85-30.41,2.85-56.16s-1.12-43.31-3.36-54.73c-2.24-11.42-6.04-20.03-11.42-25.85-2.8-2.91-6.41-4.95-10.83-6.13-4.42-1.18-11.33-1.76-20.73-1.76h-20.65v182.65Z"/>
          <path d="m916.83,264.74V6.21h132.79v42.98h-84.94v59.76h79.07v40.96h-79.07v71.18h86.96v43.65h-134.8Z"/>
        </g>
        <g>
          <path d="m1167.92,127.78v-62.05h30.78v6.45h-23.93v19.94h22.36v6.29h-22.36v22.84h24.17v6.53h-31.02Z"/>
          <path d="m1204.24,127.78v-62.05h17.57c7.04,0,12.22,2.35,15.55,7.05,3.33,4.7,5,12.01,5,21.92,0,6.98-.57,12.74-1.71,17.26-1.14,4.53-2.93,8.12-5.38,10.78-1.67,1.83-3.55,3.12-5.64,3.89-2.1.77-5.21,1.15-9.35,1.15h-16.04Zm6.93-5.92h8.98c2.9,0,5.15-.3,6.75-.89s2.85-1.54,3.77-2.86c1.45-2.12,2.5-4.77,3.14-7.94.64-3.17.97-7.61.97-13.34,0-10.02-1.05-16.71-3.14-20.06-2.1-3.36-6-5.04-11.72-5.04h-8.74v50.12Z"/>
          <path d="m1248.23,65.73h6.93v41.74c0,5.8.83,9.84,2.48,12.11,1.65,2.27,4.47,3.4,8.44,3.4s7-1.25,8.9-3.75c1.91-2.5,2.86-6.42,2.86-11.76v-41.74h6.77v40.49c0,5.24-.3,8.94-.89,11.1-.59,2.16-1.58,4.08-2.98,5.74-1.69,2.01-3.78,3.54-6.27,4.57-2.48,1.03-5.31,1.55-8.48,1.55s-6.16-.56-8.74-1.67c-2.58-1.11-4.62-2.71-6.12-4.77-1.05-1.4-1.79-3.19-2.24-5.38-.44-2.19-.66-5.9-.66-11.14v-40.49Z"/>
          <path d="m1320.93,105.01h6.85c-.08,7.87-1.71,13.88-4.9,18.03-3.18,4.15-7.77,6.22-13.76,6.22-6.39,0-11.13-2.64-14.2-7.92-3.08-5.28-4.61-13.42-4.61-24.44s1.52-19.82,4.57-24.96c3.05-5.14,7.97-7.72,14.77-7.72,5.67,0,10.04,1.65,13.11,4.94s4.61,7.97,4.61,14.04v.77h-6.69c0-4.24-.99-7.57-2.98-9.99-1.99-2.42-4.7-3.63-8.14-3.63-4.22,0-7.25,2.05-9.11,6.14-1.85,4.1-2.78,10.9-2.78,20.41s.95,15.91,2.86,19.84c1.91,3.93,5.05,5.9,9.43,5.9,3.52,0,6.22-1.44,8.12-4.33,1.89-2.89,2.84-7,2.84-12.35v-.97Z"/>
          <path d="m1329.78,127.78l16.92-62.05h8.82l17.16,62.05h-7.01l-4.71-17.89h-19.66l-4.51,17.89h-7.01Zm13.09-24.17h16.52l-8.26-32.51-8.26,32.51Z"/>
          <path d="m1404.66,105.01h6.85c-.08,7.87-1.71,13.88-4.9,18.03-3.18,4.15-7.77,6.22-13.76,6.22-6.39,0-11.13-2.64-14.2-7.92-3.08-5.28-4.61-13.42-4.61-24.44s1.52-19.82,4.57-24.96c3.05-5.14,7.97-7.72,14.77-7.72,5.67,0,10.04,1.65,13.11,4.94s4.61,7.97,4.61,14.04v.77h-6.69c0-4.24-.99-7.57-2.98-9.99-1.99-2.42-4.7-3.63-8.14-3.63-4.22,0-7.25,2.05-9.11,6.14-1.85,4.1-2.78,10.9-2.78,20.41s.95,15.91,2.86,19.84,5.05,5.9,9.43,5.9c3.52,0,6.22-1.44,8.12-4.33,1.89-2.89,2.84-7,2.84-12.35v-.97Z"/>
          <path d="m1417.78,127.78v-62.05h7.09v62.05h-7.09Z"/>
          <path d="m1430.58,96.75c0-11.55,1.56-19.86,4.69-24.92,3.13-5.06,8.19-7.59,15.19-7.59s12.13,2.5,15.23,7.51c3.1,5.01,4.65,13.34,4.65,25s-1.54,19.99-4.63,25c-3.09,5.01-8.17,7.51-15.25,7.51s-12.03-2.55-15.17-7.66c-3.14-5.1-4.71-13.39-4.71-24.86Zm7.21,0c0,9.97.95,16.85,2.84,20.67,1.89,3.81,5.17,5.72,9.84,5.72s8.01-1.86,9.88-5.58c1.86-3.72,2.8-10.66,2.8-20.81s-.93-17.04-2.8-20.75c-1.87-3.71-5.16-5.56-9.88-5.56s-7.94,1.9-9.84,5.7c-1.89,3.8-2.84,10.67-2.84,20.61Zm7.82-36.91l6.85-10.96h7.17l-9.95,10.96h-4.07Z"/>
          <path d="m1476.05,127.78v-62.05h9.27l21.51,53.22-.64-53.22h6.69v62.05h-8.86l-21.84-54.79.56,54.79h-6.69Z"/>
        </g>
        <g>
          <path d="m1192.34,195.54h11.24c0,.27.01.66.04,1.19s.04.93.04,1.23c0,7.17-1.51,12.5-4.53,15.97s-7.65,5.22-13.88,5.22c-2.95,0-5.49-.38-7.61-1.15s-3.95-1.95-5.48-3.57c-2.1-2.15-3.57-5.1-4.43-8.86-.86-3.76-1.29-10.31-1.29-19.66,0-6.39.26-11.48.77-15.25.51-3.77,1.3-6.59,2.38-8.44,1.67-2.85,3.73-4.91,6.2-6.18,2.47-1.28,5.63-1.91,9.47-1.91,6.29,0,10.86,1.64,13.72,4.92,2.86,3.28,4.3,8.54,4.33,15.79h-11.2v-1.49c0-3.36-.54-5.86-1.63-7.51s-2.75-2.48-4.98-2.48c-2.77,0-4.65,1.14-5.66,3.42-1.01,2.28-1.51,8.6-1.51,18.94,0,11.17.49,17.97,1.47,20.39.98,2.42,2.85,3.63,5.62,3.63,2.58,0,4.38-.95,5.4-2.84,1.02-1.89,1.53-5.39,1.53-10.5v-.85Z"/>
          <path d="m1207.43,186.63c0-6.58.31-11.84.92-15.77.62-3.93,1.58-6.9,2.9-8.88,1.8-2.82,3.95-4.83,6.44-6.04,2.49-1.21,5.78-1.81,9.86-1.81s7.37.6,9.86,1.81,4.66,3.22,6.48,6.04c1.31,2.04,2.27,5.02,2.88,8.94.6,3.92.91,9.16.91,15.71s-.31,11.76-.93,15.69c-.62,3.93-1.57,6.92-2.86,8.96-1.82,2.82-3.99,4.83-6.48,6.04s-5.78,1.81-9.86,1.81-7.37-.6-9.86-1.81c-2.49-1.21-4.64-3.22-6.44-6.04-1.32-1.99-2.28-4.95-2.9-8.88-.62-3.93-.92-9.19-.92-15.77Zm11.8,0c0,10.21.6,16.63,1.79,19.28,1.19,2.65,3.4,3.97,6.61,3.97s5.32-1.3,6.49-3.89c1.17-2.59,1.75-9.05,1.75-19.36s-.59-16.79-1.77-19.42c-1.18-2.63-3.36-3.95-6.55-3.95s-5.37,1.32-6.55,3.95c-1.18,2.63-1.77,9.11-1.77,19.42Z"/>
          <path d="m1252.9,217.65v-62.05h11.89l16.16,43.39-.32-43.39h10.92v62.05h-11.8l-16.28-43.47.32,43.47h-10.88Z"/>
          <path d="m1306.71,217.65v-51.81h-13.3v-10.23h38.15v10.23h-13.3v51.81h-11.56Z"/>
          <path d="m1333.44,217.65v-62.05h11.56v62.05h-11.56Z"/>
          <path d="m1351.35,217.65v-62.05h11.89l16.16,43.39-.32-43.39h10.92v62.05h-11.8l-16.28-43.47.32,43.47h-10.88Z"/>
          <path d="m1396.34,155.61h11.56v41.82c0,4.78.58,8.02,1.75,9.73,1.17,1.71,3.24,2.56,6.22,2.56s5-.86,6.14-2.58c1.14-1.72,1.71-5.01,1.71-9.87v-41.66h11.4v42.83c0,4.16-.24,7.21-.71,9.13s-1.26,3.61-2.36,5.06c-1.67,2.18-3.87,3.81-6.61,4.9-2.74,1.09-5.99,1.63-9.75,1.63-7.09,0-12.09-1.54-15.01-4.61-2.91-3.08-4.37-8.44-4.37-16.1v-42.83Z"/>
          <path d="m1436.85,217.65l13.98-62.05h15.51l14.1,62.05h-12.45l-3.06-15.59h-13.3l-2.98,15.59h-11.8Zm16.6-24.9h9.83l-4.96-26.03-4.88,26.03Z"/>
        </g>
      </g>
      <g>
        <rect class="cls-1" x="1106.27" y="9.86" width="3.59" height="248.89"/>
        <g>
          <path class="cls-1" d="m107.94,172.58h46.84c0,1.12.06,2.77.17,4.95.11,2.18.17,3.89.17,5.12,0,29.88-6.3,52.07-18.89,66.56-12.59,14.49-31.87,21.74-57.83,21.74-12.31,0-22.89-1.59-31.73-4.78-8.84-3.19-16.45-8.14-22.83-14.86-8.73-8.95-14.89-21.26-18.47-36.93-3.58-15.67-5.37-42.98-5.37-81.92,0-26.63,1.06-47.82,3.19-63.54,2.12-15.72,5.43-27.45,9.9-35.17,6.94-11.86,15.55-20.45,25.85-25.77C49.24,2.66,62.39,0,78.4,0c26.19,0,45.24,6.83,57.16,20.48,11.92,13.66,17.93,35.59,18.05,65.81h-46.67v-6.21c0-13.99-2.27-24.43-6.8-31.31-4.53-6.88-11.44-10.32-20.73-10.32-11.53,0-19.39,4.76-23.59,14.27-4.2,9.51-6.3,35.82-6.3,78.9,0,46.56,2.04,74.87,6.13,84.95,4.08,10.07,11.89,15.11,23.42,15.11,10.74,0,18.24-3.95,22.5-11.84,4.25-7.89,6.38-22.47,6.38-43.73v-3.53Z"/>
          <path class="cls-1" d="m189.78,264.74V6.21h48.18v258.53h-48.18Z"/>
          <path class="cls-1" d="m278.16,264.74V6.21h72.52l35.42,167.37L421.53,6.21h72.52v258.53h-46l1.01-229.32-48.18,229.32h-29.55l-48.18-229.32,1.18,229.32h-46.17Z"/>
          <path class="cls-1" d="m515.28,264.74L573.53,6.21h64.63l58.76,258.53h-51.87l-12.76-64.97h-55.4l-12.42,64.97h-49.19Zm69.16-103.75h40.96l-20.65-108.45-20.31,108.45Z"/>
          <path class="cls-1" d="m718.49,264.74V6.21h77.39c15.78,0,28.34,1.34,37.69,4.03,9.34,2.69,17.04,7.05,23.08,13.09,9.07,8.84,15.47,20.01,19.22,33.49,3.75,13.49,5.62,34.44,5.62,62.87,0,36.71-1.29,62.65-3.86,77.81-2.58,15.17-6.94,28.06-13.09,38.7-5.93,10.63-14.19,18.05-24.76,22.24-10.58,4.2-28.9,6.3-54.98,6.3h-66.31Zm47.17-38.11h21.32c10.85,0,18.47-.78,22.83-2.35,4.36-1.57,7.83-4.25,10.41-8.06,4.48-6.72,7.67-15.92,9.57-27.62,1.9-11.69,2.85-30.41,2.85-56.16s-1.12-43.31-3.36-54.73c-2.24-11.42-6.04-20.03-11.42-25.85-2.8-2.91-6.41-4.95-10.83-6.13-4.42-1.18-11.33-1.76-20.73-1.76h-20.65v182.65Z"/>
          <path class="cls-1" d="m916.83,264.74V6.21h132.79v42.98h-84.94v59.76h79.07v40.96h-79.07v71.18h86.96v43.65h-134.8Z"/>
        </g>
        <g>
          <path class="cls-1" d="m1167.92,127.78v-62.05h30.78v6.45h-23.93v19.94h22.36v6.29h-22.36v22.84h24.17v6.53h-31.02Z"/>
          <path class="cls-1" d="m1204.24,127.78v-62.05h17.57c7.04,0,12.22,2.35,15.55,7.05,3.33,4.7,5,12.01,5,21.92,0,6.98-.57,12.74-1.71,17.26-1.14,4.53-2.93,8.12-5.38,10.78-1.67,1.83-3.55,3.12-5.64,3.89-2.1.77-5.21,1.15-9.35,1.15h-16.04Zm6.93-5.92h8.98c2.9,0,5.15-.3,6.75-.89s2.85-1.54,3.77-2.86c1.45-2.12,2.5-4.77,3.14-7.94.64-3.17.97-7.61.97-13.34,0-10.02-1.05-16.71-3.14-20.06-2.1-3.36-6-5.04-11.72-5.04h-8.74v50.12Z"/>
          <path class="cls-1" d="m1248.23,65.73h6.93v41.74c0,5.8.83,9.84,2.48,12.11,1.65,2.27,4.47,3.4,8.44,3.4s7-1.25,8.9-3.75c1.91-2.5,2.86-6.42,2.86-11.76v-41.74h6.77v40.49c0,5.24-.3,8.94-.89,11.1-.59,2.16-1.58,4.08-2.98,5.74-1.69,2.01-3.78,3.54-6.27,4.57-2.48,1.03-5.31,1.55-8.48,1.55s-6.16-.56-8.74-1.67c-2.58-1.11-4.62-2.71-6.12-4.77-1.05-1.4-1.79-3.19-2.24-5.38-.44-2.19-.66-5.9-.66-11.14v-40.49Z"/>
          <path class="cls-1" d="m1320.93,105.01h6.85c-.08,7.87-1.71,13.88-4.9,18.03-3.18,4.15-7.77,6.22-13.76,6.22-6.39,0-11.13-2.64-14.2-7.92-3.08-5.28-4.61-13.42-4.61-24.44s1.52-19.82,4.57-24.96c3.05-5.14,7.97-7.72,14.77-7.72,5.67,0,10.04,1.65,13.11,4.94s4.61,7.97,4.61,14.04v.77h-6.69c0-4.24-.99-7.57-2.98-9.99-1.99-2.42-4.7-3.63-8.14-3.63-4.22,0-7.25,2.05-9.11,6.14-1.85,4.1-2.78,10.9-2.78,20.41s.95,15.91,2.86,19.84c1.91,3.93,5.05,5.9,9.43,5.9,3.52,0,6.22-1.44,8.12-4.33,1.89-2.89,2.84-7,2.84-12.35v-.97Z"/>
          <path class="cls-1" d="m1329.78,127.78l16.92-62.05h8.82l17.16,62.05h-7.01l-4.71-17.89h-19.66l-4.51,17.89h-7.01Zm13.09-24.17h16.52l-8.26-32.51-8.26,32.51Z"/>
          <path class="cls-1" d="m1404.66,105.01h6.85c-.08,7.87-1.71,13.88-4.9,18.03-3.18,4.15-7.77,6.22-13.76,6.22-6.39,0-11.13-2.64-14.2-7.92-3.08-5.28-4.61-13.42-4.61-24.44s1.52-19.82,4.57-24.96c3.05-5.14,7.97-7.72,14.77-7.72,5.67,0,10.04,1.65,13.11,4.94s4.61,7.97,4.61,14.04v.77h-6.69c0-4.24-.99-7.57-2.98-9.99-1.99-2.42-4.7-3.63-8.14-3.63-4.22,0-7.25,2.05-9.11,6.14-1.85,4.1-2.78,10.9-2.78,20.41s.95,15.91,2.86,19.84,5.05,5.9,9.43,5.9c3.52,0,6.22-1.44,8.12-4.33,1.89-2.89,2.84-7,2.84-12.35v-.97Z"/>
          <path class="cls-1" d="m1417.78,127.78v-62.05h7.09v62.05h-7.09Z"/>
          <path class="cls-1" d="m1430.58,96.75c0-11.55,1.56-19.86,4.69-24.92,3.13-5.06,8.19-7.59,15.19-7.59s12.13,2.5,15.23,7.51c3.1,5.01,4.65,13.34,4.65,25s-1.54,19.99-4.63,25c-3.09,5.01-8.17,7.51-15.25,7.51s-12.03-2.55-15.17-7.66c-3.14-5.1-4.71-13.39-4.71-24.86Zm7.21,0c0,9.97.95,16.85,2.84,20.67,1.89,3.81,5.17,5.72,9.84,5.72s8.01-1.86,9.88-5.58c1.86-3.72,2.8-10.66,2.8-20.81s-.93-17.04-2.8-20.75c-1.87-3.71-5.16-5.56-9.88-5.56s-7.94,1.9-9.84,5.7c-1.89,3.8-2.84,10.67-2.84,20.61Zm7.82-36.91l6.85-10.96h7.17l-9.95,10.96h-4.07Z"/>
          <path class="cls-1" d="m1476.05,127.78v-62.05h9.27l21.51,53.22-.64-53.22h6.69v62.05h-8.86l-21.84-54.79.56,54.79h-6.69Z"/>
        </g>
        <g>
          <path class="cls-1" d="m1192.34,195.54h11.24c0,.27.01.66.04,1.19s.04.93.04,1.23c0,7.17-1.51,12.5-4.53,15.97s-7.65,5.22-13.88,5.22c-2.95,0-5.49-.38-7.61-1.15s-3.95-1.95-5.48-3.57c-2.1-2.15-3.57-5.1-4.43-8.86-.86-3.76-1.29-10.31-1.29-19.66,0-6.39.26-11.48.77-15.25.51-3.77,1.3-6.59,2.38-8.44,1.67-2.85,3.73-4.91,6.2-6.18,2.47-1.28,5.63-1.91,9.47-1.91,6.29,0,10.86,1.64,13.72,4.92,2.86,3.28,4.3,8.54,4.33,15.79h-11.2v-1.49c0-3.36-.54-5.86-1.63-7.51s-2.75-2.48-4.98-2.48c-2.77,0-4.65,1.14-5.66,3.42-1.01,2.28-1.51,8.6-1.51,18.94,0,11.17.49,17.97,1.47,20.39.98,2.42,2.85,3.63,5.62,3.63,2.58,0,4.38-.95,5.4-2.84,1.02-1.89,1.53-5.39,1.53-10.5v-.85Z"/>
          <path class="cls-1" d="m1207.43,186.63c0-6.58.31-11.84.92-15.77.62-3.93,1.58-6.9,2.9-8.88,1.8-2.82,3.95-4.83,6.44-6.04,2.49-1.21,5.78-1.81,9.86-1.81s7.37.6,9.86,1.81,4.66,3.22,6.48,6.04c1.31,2.04,2.27,5.02,2.88,8.94.6,3.92.91,9.16.91,15.71s-.31,11.76-.93,15.69c-.62,3.93-1.57,6.92-2.86,8.96-1.82,2.82-3.99,4.83-6.48,6.04s-5.78,1.81-9.86,1.81-7.37-.6-9.86-1.81c-2.49-1.21-4.64-3.22-6.44-6.04-1.32-1.99-2.28-4.95-2.9-8.88-.62-3.93-.92-9.19-.92-15.77Zm11.8,0c0,10.21.6,16.63,1.79,19.28,1.19,2.65,3.4,3.97,6.61,3.97s5.32-1.3,6.49-3.89c1.17-2.59,1.75-9.05,1.75-19.36s-.59-16.79-1.77-19.42c-1.18-2.63-3.36-3.95-6.55-3.95s-5.37,1.32-6.55,3.95c-1.18,2.63-1.77,9.11-1.77,19.42Z"/>
          <path class="cls-1" d="m1252.9,217.65v-62.05h11.89l16.16,43.39-.32-43.39h10.92v62.05h-11.8l-16.28-43.47.32,43.47h-10.88Z"/>
          <path class="cls-1" d="m1306.71,217.65v-51.81h-13.3v-10.23h38.15v10.23h-13.3v51.81h-11.56Z"/>
          <path class="cls-1" d="m1333.44,217.65v-62.05h11.56v62.05h-11.56Z"/>
          <path class="cls-1" d="m1351.35,217.65v-62.05h11.89l16.16,43.39-.32-43.39h10.92v62.05h-11.8l-16.28-43.47.32,43.47h-10.88Z"/>
          <path class="cls-1" d="m1396.34,155.61h11.56v41.82c0,4.78.58,8.02,1.75,9.73,1.17,1.71,3.24,2.56,6.22,2.56s5-.86,6.14-2.58c1.14-1.72,1.71-5.01,1.71-9.87v-41.66h11.4v42.83c0,4.16-.24,7.21-.71,9.13s-1.26,3.61-2.36,5.06c-1.67,2.18-3.87,3.81-6.61,4.9-2.74,1.09-5.99,1.63-9.75,1.63-7.09,0-12.09-1.54-15.01-4.61-2.91-3.08-4.37-8.44-4.37-16.1v-42.83Z"/>
          <path class="cls-1" d="m1436.85,217.65l13.98-62.05h15.51l14.1,62.05h-12.45l-3.06-15.59h-13.3l-2.98,15.59h-11.8Zm16.6-24.9h9.83l-4.96-26.03-4.88,26.03Z"/>
        </g>
      </g>
    </g>
  </g>
</svg>