<?xml version="1.0" encoding="UTF-8"?>
<!DOCTYPE svg PUBLIC "-//W3C//DTD SVG 1.1//EN" "http://www.w3.org/Graphics/SVG/1.1/DTD/svg11.dtd">
<!-- Creator: CorelDRAW 2020 (64-Bit) -->
<svg xmlns="http://www.w3.org/2000/svg" xml:space="preserve" width="5.3374mm" height="5.3394mm" version="1.1" style="shape-rendering:geometricPrecision; text-rendering:geometricPrecision; image-rendering:optimizeQuality; fill-rule:evenodd; clip-rule:evenodd"
viewBox="0 0 38 38.01"
 xmlns:xlink="http://www.w3.org/1999/xlink"
 xmlns:xodm="http://www.corel.com/coreldraw/odm/2003">
 <defs>
  <style type="text/css">
   <![CDATA[
    .fil0 {fill:white}
   ]]>
  </style>
 </defs>
 <g id="Capa_x0020_1">
  <metadata id="CorelCorpID_0Corel-Layer"/>
  <g id="_1380786783872">
   <path class="fil0" d="M6.02 20.13c-2.12,0 -2.13,-2.23 0,-2.23l8.17 0c2.13,0 2.12,2.23 0,2.23l-0.15 0 -8.02 0zm0 -4.46c-2.12,0 -2.13,-2.23 0,-2.23l10.4 0c2.13,0 2.12,2.23 0,2.23l-10.4 0zm0 -4.46c-2.12,0 -2.13,-2.23 0,-2.23l25.99 0c2.13,0 2.12,2.23 0.07,2.23l-26.07 0zm6.68 -4.46c-0.94,0 -1.46,-0.22 -1.46,-1.12 0,-0.9 0.53,-1.11 1.46,-1.11l12.63 0c2.13,0 2.12,2.23 0,2.23l-12.63 0zm-12.7 -5.27l0 23.77c0,1.2 0.36,1.56 1.56,1.56 5.12,0 11.7,0.12 16.64,0.01l0.56 -0.03c-0.48,-1.19 -1.51,-1.9 -1.83,-4.43 -1.22,-9.68 12.03,-14.03 16.71,-5.27 0.75,1.41 1.19,3.27 0.98,5.14 -0.29,2.61 -1.36,3.38 -1.84,4.55l3.68 0.03c1.04,0 1.48,-0.26 1.48,-1.26 0,-3.79 0.14,-23.02 -0.09,-25.19 -0.44,-0.26 -0.66,-0.36 -1.4,-0.36l0.15 0c-11.69,0 -23.37,0 -35.06,0 -1.21,0 -1.56,0.23 -1.56,1.48z"/>
   <path class="fil0" d="M24.85 18.06c2,-0.58 3.69,0.72 4.11,2.22 0.59,2.05 -0.75,3.74 -2.23,4.16 -4.3,1.23 -6.1,-5.15 -1.89,-6.38zm0.12 -3.44c-3.43,0.43 -6.33,3.48 -5.83,7.46 0.42,3.41 3.52,6.3 7.48,5.79 3.38,-0.43 6.28,-3.5 5.77,-7.47 -0.43,-3.36 -3.5,-6.28 -7.42,-5.78z"/>
   <path class="fil0" d="M20.2 36.39c0,0.99 0.2,1.73 1.24,1.6 0.88,-0.1 3.03,-3.2 4.33,-3.89 0.78,0.42 2.13,1.99 2.85,2.71 0.34,0.34 0.97,1.17 1.61,1.19 0.95,0.02 1.11,-0.64 1.11,-1.61l-0.03 -8.14c-1.53,0.62 -4.1,3.08 -8.66,1.31 -1,-0.39 -1.7,-1.02 -2.42,-1.31l-0.02 8.14z"/>
   <path class="fil0" d="M25.23 20.36c-1.36,0.9 -0.01,2.51 1.15,1.81 1.11,-0.67 0.15,-2.67 -1.15,-1.81z"/>
  </g>
 </g>
</svg>
