<?xml version="1.0" encoding="UTF-8"?>
<!DOCTYPE svg PUBLIC "-//W3C//DTD SVG 1.1//EN" "http://www.w3.org/Graphics/SVG/1.1/DTD/svg11.dtd">
<!-- Creator: CorelDRAW 2020 (64-Bit) -->
<svg xmlns="http://www.w3.org/2000/svg" xml:space="preserve" width="5.1105mm" height="5.1126mm" version="1.1" style="shape-rendering:geometricPrecision; text-rendering:geometricPrecision; image-rendering:optimizeQuality; fill-rule:evenodd; clip-rule:evenodd"
viewBox="0 0 35.61 35.62"
 xmlns:xlink="http://www.w3.org/1999/xlink"
 xmlns:xodm="http://www.corel.com/coreldraw/odm/2003">
 <defs>
  <style type="text/css">
   <![CDATA[
    .fil0 {fill:white}
   ]]>
  </style>
 </defs>
 <g id="Capa_x0020_1">
  <metadata id="CorelCorpID_0Corel-Layer"/>
  <path class="fil0" d="M16.38 0.07c-9.99,0.89 -17.11,9.45 -16.32,19.13 0.76,9.32 8.87,17.21 19.18,16.35 9.35,-0.78 17.15,-8.89 16.3,-19.26 -0.76,-9.22 -8.96,-17.14 -19.16,-16.23zm0.4 8.72c3.68,-0.65 6.56,2.01 7.07,5.01 0.63,3.69 -2.01,6.56 -5.03,7.07 -3.65,0.62 -6.53,-1.99 -7.07,-4.97 -0.68,-3.75 2.01,-6.58 5.02,-7.12zm-7.81 6.71c0.35,4.69 4.4,8.58 9.58,8.16 4.6,-0.37 8.5,-4.48 8.09,-9.54 -0.37,-4.64 -4.41,-8.54 -9.54,-8.13 -4.65,0.37 -8.52,4.39 -8.14,9.51zm4.63 -1.91c-0.21,0.85 0.25,0.87 0.68,1.35 0.33,0.36 0.74,0.72 1.12,0.99 -0.08,0.6 -0.55,2.28 -0.39,2.71 0.65,0.81 1.93,-0.65 2.68,-0.85 0.54,-0.14 1.8,1.25 2.68,1.09 0.62,-0.29 -0.01,-1.77 -0.16,-2.95 0.35,-0.25 0.81,-0.65 1.14,-0.96 0.78,-0.71 0.8,-0.79 0.65,-1.38 -0.59,-0.31 -1.91,-0.35 -2.73,-0.42 -0.19,-0.51 -0.9,-2.44 -1.47,-2.45 -0.57,-0 -1.28,1.94 -1.47,2.45 -0.77,0.07 -2.2,0.14 -2.73,0.42zm-2.81 13.44c0.06,0.63 0.13,2.42 0.68,2.59 0.61,0.18 0.95,-0.75 1.44,-1.62 0.38,-0.68 2.17,-3.65 2.31,-4.08 -0.41,-0.23 -1.11,-0.34 -2.17,-0.97 -0.95,-0.57 -1.28,-0.99 -1.81,-1.34 -0.24,0.24 -0.98,1.6 -1.22,2.02 -0.39,0.67 -0.79,1.39 -1.18,2.06 -0.27,0.47 -1.32,1.79 -0.53,2.11 0.43,0.17 1.96,-0.61 2.48,-0.77zm11.92 0.97c0.53,0.92 0.85,1.89 1.5,1.59 0.47,-0.21 0.56,-1.96 0.62,-2.56 0.5,0.14 2.08,0.93 2.44,0.79 0.84,-0.32 -0.16,-1.59 -0.45,-2.08 -0.36,-0.61 -2.17,-3.88 -2.43,-4.13 -0.58,0.38 -1.03,0.89 -1.8,1.34 -1.02,0.6 -1.8,0.75 -2.18,0.97l2.3 4.08z"/>
 </g>
</svg>
