<?xml version="1.0" encoding="UTF-8"?>
<!DOCTYPE svg PUBLIC "-//W3C//DTD SVG 1.1//EN" "http://www.w3.org/Graphics/SVG/1.1/DTD/svg11.dtd">
<!-- Creator: CorelDRAW 2020 (64-Bit) -->
<svg xmlns="http://www.w3.org/2000/svg" xml:space="preserve" width="5.1106mm" height="5.1126mm" version="1.1" style="shape-rendering:geometricPrecision; text-rendering:geometricPrecision; image-rendering:optimizeQuality; fill-rule:evenodd; clip-rule:evenodd"
viewBox="0 0 35.61 35.62"
 xmlns:xlink="http://www.w3.org/1999/xlink"
 xmlns:xodm="http://www.corel.com/coreldraw/odm/2003">
 <defs>
  <style type="text/css">
   <![CDATA[
    .fil0 {fill:white}
   ]]>
  </style>
 </defs>
 <g id="Capa_x0020_1">
  <metadata id="CorelCorpID_0Corel-Layer"/>
  <path class="fil0" d="M8 27.99c1.22,-3.37 4.96,-6.61 9.82,-6.62 4.21,-0 8.73,2.89 9.83,6.62 -0.86,1.1 -2.54,2.12 -4.13,2.86 -3.49,1.62 -8.04,1.59 -11.51,-0.06 -1.36,-0.65 -3.41,-1.84 -4.01,-2.81zm9.07 -20.81c3.06,-0.46 5.66,1.89 6.03,4.52 0.44,3.1 -1.88,5.68 -4.52,6.06 -6.84,0.98 -8.66,-9.51 -1.51,-10.57zm-0.69 -7.11c-9.99,0.89 -17.11,9.45 -16.32,19.13 0.76,9.32 8.87,17.21 19.18,16.35 9.35,-0.78 17.15,-8.89 16.3,-19.26 -0.76,-9.22 -8.96,-17.14 -19.16,-16.23z"/>
 </g>
</svg>
