<?xml version="1.0" standalone="no"?>
<!DOCTYPE svg PUBLIC "-//W3C//DTD SVG 20010904//EN"
 "http://www.w3.org/TR/2001/REC-SVG-20010904/DTD/svg10.dtd">
<svg version="1.0" xmlns="http://www.w3.org/2000/svg"
 width="150.000000pt" height="150.000000pt" viewBox="0 0 150.000000 150.000000"
 preserveAspectRatio="xMidYMid meet">

<g transform="translate(0.000000,150.000000) scale(0.100000,-0.100000)"
fill="#000000" stroke="none">
<path d="M690 1326 c0 -3 41 -84 90 -180 l91 -175 -46 -91 -46 -91 63 3 63 3
42 80 c23 44 42 88 43 97 0 23 -157 330 -177 346 -15 11 -123 18 -123 8z"/>
<path d="M550 1030 c-22 -44 -40 -86 -40 -95 0 -19 146 -313 168 -337 11 -13
30 -18 74 -18 l58 0 -89 178 -89 178 39 83 c21 46 39 85 39 87 0 2 -27 4 -60
4 l-60 0 -40 -80z"/>
<path d="M712 988 c-7 -7 -12 -25 -12 -40 0 -37 38 -57 75 -40 27 13 35 58 13
80 -15 15 -61 15 -76 0z"/>
</g>
</svg>
