<?xml version="1.0" encoding="utf-8"?>
<!-- Generator: Adobe Illustrator 27.1.0, SVG Export Plug-In . SVG Version: 6.00 Build 0)  -->
<svg version="1.1" id="Capa_1" xmlns="http://www.w3.org/2000/svg" xmlns:xlink="http://www.w3.org/1999/xlink" x="0px" y="0px"
	 viewBox="0 0 150 150" style="enable-background:new 0 0 150 150;" xml:space="preserve">
<style type="text/css">
	.st0{display:none;}
	.st1{display:inline;}
	.st2{fill-rule:evenodd;clip-rule:evenodd;fill:#FFFFFF;}
	.st3{fill:#FFFFFF;}
</style>
<g id="Capa_2_00000044135405427527197950000010789843402847468931_" class="st0">
	<g class="st1">
		<circle class="st2" cx="75" cy="75" r="75"/>
		<path class="st2" d="M75.5,26.7c-26.2,0-47.6,21.3-47.6,47.6c0,8,2.1,15.9,6,23L27,123.1l25.9-6.9c6.9,3.8,14.7,5.8,22.6,5.8
			c26.2,0,47.6-21.3,47.6-47.7C123.1,48.1,101.8,26.7,75.5,26.7z M75.4,113c-6.9,0-13.7-1.9-19.7-5.5l-1.6-1l-14.5,3.9L43.5,96
			l-1-1.6c-3.6-6-5.6-13-5.6-20c0-21.3,17.3-38.6,38.6-38.6s38.6,17.3,38.5,38.6C114,95.7,96.7,113,75.4,113z"/>
		<path class="st2" d="M98.2,89c-1.4,3.5-5,5.7-8.6,6.4c-3.5,0.7-6.3-0.4-9.5-1.5c-2.9-0.9-5.6-2.3-8.2-3.9
			c-5.1-3.1-9.5-7.3-13.1-12.2c-1.1-1.5-2.1-3-3-4.6c-1.2-2.1-2.3-4.3-2.9-6.7c-0.2-1-0.4-2-0.4-3c0-3.6,1.3-7.2,4.2-9.5
			c1.6-1.3,4.1-1.9,5.9-0.9c2,1.1,3,4,4,6c0.7,1.6,1.6,3.6,1.3,5.4c-0.3,1.8-1.7,3.2-2.8,4.5c-0.7,0.9-0.9,1.6-0.2,2.6
			c3.7,6.1,8.8,10.6,15.4,13.2c0.9,0.4,1.6,0.3,2.2-0.5c1.1-1.4,2.3-4.2,4-4.9c2.3-0.9,4.9,0.4,6.8,1.5c1.8,1.1,4.9,2.4,5.4,4.7
			C98.8,86.8,98.6,88,98.2,89z"/>
	</g>
</g>
<g id="layer1">
	<path class="st3" d="M75,150c-41.4,0-75-33.6-75-75C0,33.7,33.7,0,75,0c1.3,0,2.6,0.5,3.5,1.5C79.5,2.4,80,3.7,80,5
		c0,2.7-2.2,4.9-4.9,4.9C39.1,9.9,9.9,39.1,9.9,75c0,35.9,29.2,65,65.1,65c35.9,0,65-29.2,65-65c0-1.3,0.5-2.6,1.4-3.5
		c0.9-0.9,2.2-1.5,3.5-1.5h0.1c1.3,0,2.6,0.5,3.5,1.5c0.9,0.9,1.4,2.2,1.4,3.5C150,116.4,116.4,150,75,150z M103,94
		c-0.8,0-1.5-0.2-2.2-0.5l-28-14C71.1,78.6,70,76.9,70,75V32.9c0-2.7,2.2-4.9,5-4.9c1.4,0,2.6,0.5,3.5,1.5c0.9,0.9,1.4,2.2,1.4,3.5
		v38.9l25.3,12.6c1.2,0.6,2.1,1.6,2.5,2.9c0.4,1.2,0.3,2.6-0.3,3.8l0,0.1C106.6,92.9,104.9,94,103,94z M139.8,53.3
		c-2,0-3.8-1.2-4.6-3.1c0-0.1-0.1-0.2-0.2-0.3c-0.5-1.2-0.5-2.5,0-3.7c0.5-1.2,1.5-2.2,2.7-2.7c0.6-0.3,1.3-0.4,1.9-0.4
		c2,0,3.8,1.2,4.6,3.1l0.1,0.3c0.5,1.2,0.5,2.6,0,3.8c-0.5,1.2-1.5,2.2-2.7,2.7C141,53.2,140.4,53.3,139.8,53.3z M124.6,30.6
		c-1.3,0-2.6-0.5-3.5-1.5l-0.2-0.2c-0.9-0.9-1.5-2.2-1.5-3.5c0-1.3,0.5-2.6,1.5-3.5c0.9-0.9,2.1-1.4,3.4-1.5l0.1,0
		c1.3,0,2.6,0.5,3.5,1.5l0.2,0.2c0.9,0.9,1.5,2.2,1.5,3.5c0,1.3-0.5,2.6-1.5,3.5C127.2,30.1,125.9,30.6,124.6,30.6
		C124.6,30.6,124.6,30.6,124.6,30.6z M101.9,15.3c-0.6,0-1.3-0.1-1.8-0.4c-0.1-0.1-0.2-0.1-0.3-0.1c-1.2-0.5-2.2-1.5-2.7-2.7
		c-0.5-1.2-0.5-2.6,0-3.8c0.8-1.9,2.5-3.1,4.5-3.1l0.1,0c0.6,0,1.2,0.1,1.8,0.4c0.1,0.1,0.2,0.1,0.3,0.2c2.5,1.1,3.7,4,2.7,6.5
		C105.8,14.1,104,15.3,101.9,15.3z"/>
</g>
</svg>
