<?xml version="1.0" encoding="utf-8"?>
<!-- Generator: Adobe Illustrator 27.1.0, SVG Export Plug-In . SVG Version: 6.00 Build 0)  -->
<svg version="1.1" id="Capa_1" xmlns="http://www.w3.org/2000/svg" xmlns:xlink="http://www.w3.org/1999/xlink" x="0px" y="0px"
	 viewBox="0 0 150 150" style="enable-background:new 0 0 150 150;" xml:space="preserve">
<style type="text/css">
	.st0{display:none;}
	.st1{display:inline;}
	.st2{fill-rule:evenodd;clip-rule:evenodd;fill:#FFFFFF;}
	.st3{fill:#FFFFFF;}
</style>
<g id="Capa_2_00000044135405427527197950000010789843402847468931_" class="st0">
	<g class="st1">
		<circle class="st2" cx="75" cy="75" r="75"/>
		<path class="st2" d="M75.5,26.7c-26.2,0-47.6,21.3-47.6,47.6c0,8,2.1,15.9,6,23L27,123.1l25.9-6.9c6.9,3.8,14.7,5.8,22.6,5.8
			c26.2,0,47.6-21.3,47.6-47.7C123.1,48.1,101.8,26.7,75.5,26.7z M75.4,113c-6.9,0-13.7-1.9-19.7-5.5l-1.6-1l-14.5,3.9L43.5,96
			l-1-1.6c-3.6-6-5.6-13-5.6-20c0-21.3,17.3-38.6,38.6-38.6s38.6,17.3,38.5,38.6C114,95.7,96.7,113,75.4,113z"/>
		<path class="st2" d="M98.2,89c-1.4,3.5-5,5.7-8.6,6.4c-3.5,0.7-6.3-0.4-9.5-1.5c-2.9-0.9-5.6-2.3-8.2-3.9
			c-5.1-3.1-9.5-7.3-13.1-12.2c-1.1-1.5-2.1-3-3-4.6c-1.2-2.1-2.3-4.3-2.9-6.7c-0.2-1-0.4-2-0.4-3c0-3.6,1.3-7.2,4.2-9.5
			c1.6-1.3,4.1-1.9,5.9-0.9c2,1.1,3,4,4,6c0.7,1.6,1.6,3.6,1.3,5.4c-0.3,1.8-1.7,3.2-2.8,4.5c-0.7,0.9-0.9,1.6-0.2,2.6
			c3.7,6.1,8.8,10.6,15.4,13.2c0.9,0.4,1.6,0.3,2.2-0.5c1.1-1.4,2.3-4.2,4-4.9c2.3-0.9,4.9,0.4,6.8,1.5c1.8,1.1,4.9,2.4,5.4,4.7
			C98.8,86.8,98.6,88,98.2,89z"/>
	</g>
</g>
<g>
	<path class="st3" d="M75,0C34.5,0,1.5,33,1.5,73.5c0,15.9,6.4,30.1,9.2,35.5c1.3,2.5,4.4,3.5,6.9,2.2c2.5-1.3,3.5-4.4,2.2-6.9
		c-2.4-4.7-8.1-17.2-8.1-30.8c0-34.9,28.4-63.3,63.3-63.3c34.9,0,63.3,28.4,63.3,63.3c0,34.9-28.4,63.3-63.3,63.3
		c-13.7,0-24.5-4.7-28.5-6.8c-1.2-0.6-2.6-0.7-3.9-0.3L10.4,140c-2.7,0.9-4.2,3.7-3.3,6.4c0.7,2.2,2.7,3.6,4.9,3.6
		c0.5,0,1-0.1,1.6-0.2l30.2-9.7C50.1,143,61.2,147,75,147c40.5,0,73.5-33,73.5-73.5C148.5,33,115.5,0,75,0z"/>
	<path class="st3" d="M60.5,61c-2.2,1.7-2.7,4.9-0.9,7.2c1.7,2.2,4.9,2.7,7.2,0.9c1.6-1.2,5.7-4.4,5.1-10.1
		c-0.4-3.4-3.7-8.1-6.4-11.4c-4-4.8-7.3-7.7-10-8.5c-2.5-0.8-5-0.6-7.5,0.4c-5.2,2.1-8.9,5.5-10.6,10c-1.7,4.3-1.4,9.2,0.9,14
		c5.3,11.3,12.5,21,21.2,28.9c0,0,0.1,0.1,0.1,0.1c8.8,7.8,19.3,13.8,31.1,17.9c2.2,0.8,4.4,1.2,6.5,1.2c2.7,0,5.2-0.6,7.5-1.8
		c4.2-2.2,7.2-6.2,8.7-11.7c0.7-2.6,0.6-5.2-0.5-7.5c-1.1-2.6-4.3-5.6-9.6-9c-3.6-2.3-8.6-5.1-12-5.1c0,0,0,0,0,0
		c-5.7,0-8.4,4.5-9.5,6.2c-1.5,2.4-0.7,5.6,1.7,7c2.4,1.5,5.6,0.7,7-1.7c0.4-0.7,0.7-1,0.8-1.2c2.9,0.8,10.6,5.9,12.2,8
		c0,0.1,0,0.3-0.1,0.6c-0.5,1.8-1.5,4.2-3.6,5.3c-2,1-4.3,0.6-5.9,0C83.4,97,74.1,91.7,66.3,84.8c0,0,0,0,0,0
		c-7.7-7-14.1-15.7-18.9-25.7c-0.7-1.5-1.4-3.8-0.6-5.9c0.9-2.2,3.1-3.5,4.9-4.2c0.3-0.1,0.5-0.1,0.6-0.1c2.3,1.3,8.2,8.4,9.3,11.2
		C61.4,60.2,61.1,60.5,60.5,61z"/>
</g>
</svg>
