<?xml version="1.0" encoding="utf-8"?>
<!-- Generator: Adobe Illustrator 27.1.0, SVG Export Plug-In . SVG Version: 6.00 Build 0)  -->
<svg version="1.1" id="Capa_1" xmlns="http://www.w3.org/2000/svg" xmlns:xlink="http://www.w3.org/1999/xlink" x="0px" y="0px"
	 viewBox="0 0 150 150" style="enable-background:new 0 0 150 150;" xml:space="preserve">
<style type="text/css">
	.st0{display:none;}
	.st1{display:inline;}
	.st2{fill-rule:evenodd;clip-rule:evenodd;fill:#FFFFFF;}
	.st3{fill:#FFFFFF;}
</style>
<g id="Capa_2_00000044135405427527197950000010789843402847468931_" class="st0">
	<g class="st1">
		<circle class="st2" cx="75" cy="75" r="75"/>
		<path class="st2" d="M75.5,26.7c-26.2,0-47.6,21.3-47.6,47.6c0,8,2.1,15.9,6,23L27,123.1l25.9-6.9c6.9,3.8,14.7,5.8,22.6,5.8
			c26.2,0,47.6-21.3,47.6-47.7C123.1,48.1,101.8,26.7,75.5,26.7z M75.4,113c-6.9,0-13.7-1.9-19.7-5.5l-1.6-1l-14.5,3.9L43.5,96
			l-1-1.6c-3.6-6-5.6-13-5.6-20c0-21.3,17.3-38.6,38.6-38.6s38.6,17.3,38.5,38.6C114,95.7,96.7,113,75.4,113z"/>
		<path class="st2" d="M98.2,89c-1.4,3.5-5,5.7-8.6,6.4c-3.5,0.7-6.3-0.4-9.5-1.5c-2.9-0.9-5.6-2.3-8.2-3.9
			c-5.1-3.1-9.5-7.3-13.1-12.2c-1.1-1.5-2.1-3-3-4.6c-1.2-2.1-2.3-4.3-2.9-6.7c-0.2-1-0.4-2-0.4-3c0-3.6,1.3-7.2,4.2-9.5
			c1.6-1.3,4.1-1.9,5.9-0.9c2,1.1,3,4,4,6c0.7,1.6,1.6,3.6,1.3,5.4c-0.3,1.8-1.7,3.2-2.8,4.5c-0.7,0.9-0.9,1.6-0.2,2.6
			c3.7,6.1,8.8,10.6,15.4,13.2c0.9,0.4,1.6,0.3,2.2-0.5c1.1-1.4,2.3-4.2,4-4.9c2.3-0.9,4.9,0.4,6.8,1.5c1.8,1.1,4.9,2.4,5.4,4.7
			C98.8,86.8,98.6,88,98.2,89z"/>
	</g>
</g>
<path class="st3" d="M22.5,138.1C10.1,138.1,0,128,0,115.6V34.4C0,22,10.1,11.9,22.5,11.9h105c12.4,0,22.5,10.1,22.5,22.5v44.2
	c0,2.5-2.1,4.6-4.6,4.6c-2.5,0-4.6-2.1-4.6-4.6V48.9l-39.2,24.4l46.7,37.6c1.1,0.9,1.7,2.2,1.7,3.6v1.2c0,12.4-10.1,22.5-22.5,22.5
	H22.5z M9.2,116.5l0.1,0.8c0.8,6.6,6.5,11.7,13.2,11.7h105c6.6,0,12.3-5,13.2-11.5l0.1-0.8L93.3,78.4l-6.5,4
	c-3.6,2.2-7.7,3.4-11.9,3.4c-4.2,0-8.3-1.2-11.9-3.4l-6.5-4L9.2,116.5z M9.2,104.7l39.2-31.5L9.2,48.9V104.7z M22.5,21.1
	c-7.3,0-13.3,6-13.3,13.3v3.6l0.8,0.5l58,36c2.1,1.3,4.6,2,7,2c2.5,0,4.9-0.7,7-2L140.8,38v-3.6c0-7.3-6-13.3-13.3-13.3H22.5z"/>
</svg>
