<?xml version="1.0" encoding="utf-8"?>
<!-- Generator: Adobe Illustrator 27.1.0, SVG Export Plug-In . SVG Version: 6.00 Build 0)  -->
<svg version="1.1" id="Capa_1" xmlns="http://www.w3.org/2000/svg" xmlns:xlink="http://www.w3.org/1999/xlink" x="0px" y="0px"
	 viewBox="0 0 60 60" style="enable-background:new 0 0 60 60;" xml:space="preserve">
<style type="text/css">
	.st0{fill:#FFFFFF;}
</style>
<g>
	<path class="st0" d="M57.5,27H54v-6.3c0-1.5-1.2-2.7-2.7-2.7H50V0H10v2H7v2H4v7H2.7C1.2,11,0,12.2,0,13.7v43.7h0
		C0,58,0.2,58.5,0.5,59c0.5,0.6,1.2,1,2,1h44.8c1.2,0,2.2-0.8,2.4-1.8l10.2-28V30C60,28.2,58.9,27,57.5,27z M51.3,20
		c0.4,0,0.7,0.3,0.7,0.7V27h-2v-7H51.3z M48,2v16v9H12.7c-0.2,0-0.5,0-0.7,0.1c0,0,0,0-0.1,0V2H48z M10,4v25.6l-0.1,0.2L9,32.3V4H10
		z M6,6h1v31.8l-1,2.7V11V6z M2,13.7C2,13.3,2.3,13,2.7,13H4v32.9l-2,5.5V13.7z M47.9,57.6c-0.1,0.2-0.3,0.4-0.5,0.4H2.6
		c-0.2,0-0.4-0.1-0.4-0.2C2.1,57.7,2,57.5,2,57.4l2-5.5v0l3-8.2l0,0l3-8.2v0l1.9-5.3l0.1-0.2l0,0l0.2-0.4l0-0.1
		c0.1-0.2,0.3-0.4,0.5-0.4H48h2h4h3.5c0.4,0,0.5,0.5,0.5,0.8L47.9,57.6z"/>
	<path class="st0" d="M18,17h24c0.6,0,1-0.4,1-1s-0.4-1-1-1H18c-0.6,0-1,0.4-1,1C17,16.6,17.4,17,18,17z"/>
	<path class="st0" d="M18,10h10c0.6,0,1-0.4,1-1s-0.4-1-1-1H18c-0.6,0-1,0.4-1,1S17.4,10,18,10z"/>
	<path class="st0" d="M18,24h24c0.6,0,1-0.4,1-1s-0.4-1-1-1H18c-0.6,0-1,0.4-1,1S17.4,24,18,24z"/>
</g>
</svg>
