<?xml version="1.0" encoding="utf-8"?>
<!-- Generator: Adobe Illustrator 27.1.0, SVG Export Plug-In . SVG Version: 6.00 Build 0)  -->
<svg version="1.1" xmlns="http://www.w3.org/2000/svg" xmlns:xlink="http://www.w3.org/1999/xlink" x="0px" y="0px"
	 viewBox="0 0 150 150" style="enable-background:new 0 0 150 150;" xml:space="preserve">
<style type="text/css">
	.st0{display:none;}
	.st1{fill-rule:evenodd;clip-rule:evenodd;fill:#FFFFFF;}
	.st2{display:inline;}
</style>
<g id="Capa_1">
	<circle class="st0" cx="75" cy="75" r="75"/>
	<g>
		<path class="st1" d="M75.5,35.8c-21.3,0-38.6,17.3-38.6,38.6c0,7,2,14,5.6,20l1,1.6l-3.9,14.4l14.5-3.9l1.6,1
			c6,3.6,12.8,5.5,19.7,5.5c21.3,0,38.6-17.3,38.6-38.6C114.1,53.1,96.8,35.8,75.5,35.8z M98.2,89c-1.4,3.5-5,5.7-8.6,6.4
			c-3.5,0.7-6.3-0.4-9.5-1.5c-2.9-0.9-5.6-2.3-8.2-3.9c-5.1-3.1-9.5-7.3-13.1-12.2c-1.1-1.5-2.1-3-3-4.6c-1.2-2.1-2.3-4.3-2.9-6.7
			c-0.2-1-0.4-2-0.4-3c0-3.6,1.3-7.2,4.2-9.5c1.6-1.3,4.1-1.9,5.9-0.9c2,1.1,3,4,4,6c0.7,1.6,1.6,3.6,1.3,5.4s-1.7,3.2-2.8,4.5
			c-0.7,0.9-0.9,1.6-0.2,2.6c3.7,6.1,8.8,10.6,15.4,13.2c0.9,0.4,1.6,0.3,2.2-0.5c1.1-1.4,2.3-4.2,4-4.9c2.3-0.9,4.9,0.4,6.8,1.5
			c1.8,1.1,4.9,2.4,5.4,4.7C98.8,86.8,98.6,88,98.2,89z"/>
		<path class="st1" d="M75,0C33.6,0,0,33.6,0,75s33.6,75,75,75s75-33.6,75-75S116.4,0,75,0z M75.5,122c-7.9,0-15.7-2-22.6-5.8
			L27,123.1l6.9-25.8c-3.9-7.1-6-15-6-23c0-26.3,21.4-47.6,47.6-47.6c26.3,0,47.6,21.4,47.6,47.6C123.1,100.7,101.7,122,75.5,122z"
			/>
	</g>
</g>
<g id="Capa_2" class="st0">
	<g class="st2">
		<circle class="st1" cx="75" cy="75" r="75"/>
		<path class="st1" d="M75.5,26.7c-26.2,0-47.6,21.3-47.6,47.6c0,8,2.1,15.9,6,23L27,123.1l25.9-6.9c6.9,3.8,14.7,5.8,22.6,5.8
			c26.2,0,47.6-21.3,47.6-47.7C123.1,48.1,101.8,26.7,75.5,26.7z M75.4,113c-6.9,0-13.7-1.9-19.7-5.5l-1.6-1l-14.5,3.9L43.5,96
			l-1-1.6c-3.6-6-5.6-13-5.6-20c0-21.3,17.3-38.6,38.6-38.6s38.6,17.3,38.5,38.6C114,95.7,96.7,113,75.4,113z"/>
		<path class="st1" d="M98.2,89c-1.4,3.5-5,5.7-8.6,6.4c-3.5,0.7-6.3-0.4-9.5-1.5c-2.9-0.9-5.6-2.3-8.2-3.9
			c-5.1-3.1-9.5-7.3-13.1-12.2c-1.1-1.5-2.1-3-3-4.6c-1.2-2.1-2.3-4.3-2.9-6.7c-0.2-1-0.4-2-0.4-3c0-3.6,1.3-7.2,4.2-9.5
			c1.6-1.3,4.1-1.9,5.9-0.9c2,1.1,3,4,4,6c0.7,1.6,1.6,3.6,1.3,5.4c-0.3,1.8-1.7,3.2-2.8,4.5c-0.7,0.9-0.9,1.6-0.2,2.6
			c3.7,6.1,8.8,10.6,15.4,13.2c0.9,0.4,1.6,0.3,2.2-0.5c1.1-1.4,2.3-4.2,4-4.9c2.3-0.9,4.9,0.4,6.8,1.5c1.8,1.1,4.9,2.4,5.4,4.7
			C98.8,86.8,98.6,88,98.2,89z"/>
	</g>
</g>
</svg>
