<?xml version="1.0" encoding="utf-8"?>
<!-- Generator: Adobe Illustrator 27.1.1, SVG Export Plug-In . SVG Version: 6.00 Build 0)  -->
<svg version="1.0" id="Capa_1" xmlns="http://www.w3.org/2000/svg" xmlns:xlink="http://www.w3.org/1999/xlink" x="0px" y="0px"
	 viewBox="0 0 150 150" style="enable-background:new 0 0 150 150;" xml:space="preserve">
<style type="text/css">
	.st0{fill:#FFFFFF;}
</style>
<g>
	<path class="st0" d="M75,0C33.58,0,0,33.58,0,75s33.58,75,75,75c41.42,0,75-33.58,75-75S116.42,0,75,0z M116.22,66.41
		c-2.8,0-5.55-0.37-8.27-1c-4.68-1.07-8.99-2.97-13-5.6c-0.21-0.14-0.43-0.43-0.65-0.33c-0.28,0.13-0.13,0.49-0.13,0.75
		C94.16,71,94.21,81.75,94.15,92.51c-0.04,7.52-2.44,14.25-7.36,19.98c-5.23,6.09-11.87,9.62-19.85,10.6
		c-6.15,0.75-11.98-0.36-17.51-3.1c-0.9-0.44-1.75-0.96-2.55-1.56c-0.25-0.22-0.5-0.45-0.76-0.67c0,0,0,0,0,0
		c-0.6-0.26-1.08-0.7-1.59-1.09c-4.94-3.92-8.42-8.85-10.34-14.87c-0.67-2.09-1.08-4.24-1.28-6.43c-0.15-1.59-0.17-3.17-0.06-4.75
		c0.24-3.64,1.1-7.15,2.61-10.48c1.57-3.48,3.72-6.58,6.45-9.25c3.18-3.11,6.86-5.45,11.06-6.96c2.63-0.95,5.34-1.52,8.13-1.72
		c2.02-0.15,4.03-0.1,6.04,0.14c0.27,0.03,0.43,0.09,0.42,0.41c-0.02,1.12-0.02,2.23-0.03,3.35c0.02,0.02,0.16,8.49,0.16,12.37
		c0,0.14,0,0.27-0.01,0.41c-0.02,0.39-0.22,0.52-0.58,0.41c-1.06-0.3-2.15-0.44-3.25-0.5c-1.7-0.09-3.38,0.15-4.97,0.74
		c-5.33,1.97-8.57,5.78-9.24,11.41c-0.67,5.54,1.52,9.98,6.13,13.17c0.39,0.27,0.78,0.52,1.14,0.82c0.09,0.08,0.17,0.16,0.26,0.24
		c1.07,0.43,2.14,0.85,3.28,1.08c3.62,0.72,7.03,0.16,10.16-1.77c3.62-2.23,5.76-5.51,6.52-9.69c0.14-0.79,0.17-1.59,0.16-2.4
		c0-21.6,0-43.2,0-64.8c0-1.01-0.14-0.88,0.86-0.88c4.98,0,9.96,0,14.94,0c0.12,0,0.24,0,0.35,0c0.51,0.01,0.52,0.01,0.52,0.52
		c-0.01,1.15,0.47,3.87,0.52,4.08c2.15,10.92,14.88,17.6,18.81,18.19c1.08,0.16,2.17,0.29,3.26,0.28c0.46,0,0.47,0.01,0.47,0.45
		c0,1.02,0.2,11.46,0.19,15.28C117.22,66.37,117.1,66.41,116.22,66.41z"/>
</g>
</svg>
