<?xml version="1.0" encoding="utf-8"?>
<!-- Generator: Adobe Illustrator 27.1.1, SVG Export Plug-In . SVG Version: 6.00 Build 0)  -->
<svg version="1.0" id="Capa_1" xmlns="http://www.w3.org/2000/svg" xmlns:xlink="http://www.w3.org/1999/xlink" x="0px" y="0px"
	 viewBox="0 0 150 150" style="enable-background:new 0 0 150 150;" xml:space="preserve">
<style type="text/css">
	.st0{fill:#FFFFFF;}
</style>
<g>
	<path class="st0" d="M111.81,47.15c-0.86-2.2-1.88-3.78-3.53-5.43c-1.65-1.65-3.23-2.68-5.43-3.53c-1.66-0.65-4.16-1.42-8.77-1.63
		c-4.98-0.23-6.47-0.28-19.08-0.28c-12.61,0-14.1,0.05-19.08,0.28c-4.6,0.21-7.1,0.98-8.77,1.63c-2.2,0.86-3.78,1.88-5.43,3.53
		c-1.65,1.65-2.68,3.23-3.53,5.43c-0.65,1.66-1.42,4.16-1.63,8.77c-0.23,4.98-0.28,6.47-0.28,19.08c0,12.61,0.05,14.1,0.28,19.08
		c0.21,4.6,0.98,7.1,1.63,8.77c0.86,2.2,1.88,3.78,3.53,5.43c1.65,1.65,3.23,2.68,5.43,3.53c1.66,0.65,4.16,1.42,8.77,1.63
		c4.98,0.23,6.47,0.28,19.08,0.28c12.61,0,14.1-0.05,19.08-0.28c4.6-0.21,7.1-0.98,8.77-1.63c2.2-0.86,3.78-1.88,5.43-3.53
		s2.68-3.23,3.53-5.43c0.65-1.66,1.42-4.16,1.63-8.77c0.23-4.98,0.28-6.47,0.28-19.08c0-12.61-0.05-14.1-0.28-19.08
		C113.23,51.31,112.46,48.81,111.81,47.15z M75,99.25c-13.39,0-24.25-10.86-24.25-24.25S61.61,50.75,75,50.75
		c13.39,0,24.25,10.86,24.25,24.25S88.39,99.25,75,99.25z M100.21,55.46c-3.13,0-5.67-2.54-5.67-5.67c0-3.13,2.54-5.67,5.67-5.67
		c3.13,0,5.67,2.54,5.67,5.67C105.87,52.92,103.34,55.46,100.21,55.46z"/>
	<ellipse transform="matrix(0.9871 -0.1602 0.1602 0.9871 -11.0452 12.9821)" class="st0" cx="75" cy="75" rx="15.74" ry="15.74"/>
	<path class="st0" d="M75,0C33.58,0,0,33.58,0,75s33.58,75,75,75c41.42,0,75-33.58,75-75S116.42,0,75,0z M121.94,94.47
		c-0.23,5.03-1.03,8.46-2.19,11.46c-1.21,3.11-2.82,5.74-5.45,8.36c-2.63,2.63-5.26,4.24-8.36,5.45c-3,1.17-6.44,1.97-11.46,2.2
		c-5.04,0.23-6.64,0.28-19.47,0.28c-12.82,0-14.43-0.05-19.47-0.28c-5.03-0.23-8.46-1.03-11.46-2.2c-3.11-1.21-5.74-2.82-8.36-5.45
		c-2.63-2.63-4.24-5.26-5.45-8.36c-1.17-3-1.97-6.44-2.19-11.46c-0.23-5.04-0.28-6.64-0.28-19.47c0-12.82,0.05-14.43,0.28-19.47
		c0.23-5.03,1.03-8.46,2.19-11.46c1.21-3.11,2.82-5.74,5.45-8.36c2.63-2.63,5.26-4.24,8.36-5.45c3-1.17,6.44-1.97,11.46-2.19
		c5.04-0.23,6.64-0.28,19.47-0.28c12.82,0,14.43,0.05,19.47,0.28c5.03,0.23,8.46,1.03,11.46,2.19c3.11,1.21,5.74,2.82,8.36,5.45
		c2.63,2.63,4.24,5.26,5.45,8.36c1.17,3,1.97,6.44,2.19,11.46c0.23,5.04,0.28,6.64,0.28,19.47S122.17,89.43,121.94,94.47z"/>
</g>
</svg>
